<svg width="126" height="24" viewBox="0 0 126 24" fill="none" xmlns="http://www.w3.org/2000/svg">
<path d="M3.2466 11.904H18.8706V14.424H3.2466V11.904ZM0.894595 18.12H21.0066V20.688H0.894595V18.12ZM9.3426 13.176H12.5346V19.248H9.3426V13.176ZM3.2466 2.424H18.6786V4.968H6.4866V12.864H3.2466V2.424ZM5.5026 7.128H18.1746V9.624H5.5026V7.128ZM31.4999 2.232H34.8119C34.8119 8.424 31.9319 12.48 24.4679 14.616L23.2679 12.096C29.5559 10.392 31.4999 7.44 31.4999 3.624V2.232ZM24.3959 2.232H33.3719V4.752H24.3959V2.232ZM31.6439 6.384V8.568L23.7239 9.144L23.2679 6.672L31.6439 6.384ZM38.1719 0.935999H41.3879V14.016H38.1719V0.935999ZM33.8759 14.376C38.5319 14.376 41.4839 16.008 41.4839 18.768C41.4839 21.528 38.5319 23.136 33.8759 23.136C29.1959 23.136 26.2679 21.528 26.2679 18.768C26.2679 16.008 29.1959 14.376 33.8759 14.376ZM33.8759 16.872C30.9719 16.872 29.4599 17.472 29.4599 18.768C29.4599 20.04 30.9719 20.688 33.8759 20.688C36.7559 20.688 38.2919 20.04 38.2919 18.768C38.2919 17.472 36.7559 16.872 33.8759 16.872Z" fill="#42A1E0"/>
<path d="M45.5692 3.192H54.3532V17.592H45.5692V3.192ZM51.3772 5.688H48.5452V15.096H51.3772V5.688ZM61.0012 0.912H64.0492V23.136H61.0012V0.912ZM52.7452 8.976H57.7372V11.544H52.7452V8.976ZM56.4652 1.248H59.4652V22.128H56.4652V1.248ZM82.2226 0.887999H85.4386V23.184H82.2226V0.887999ZM73.4626 2.448C76.8226 2.448 79.2946 5.52 79.2946 10.368C79.2946 15.264 76.8226 18.336 73.4626 18.336C70.1026 18.336 67.6306 15.264 67.6306 10.368C67.6306 5.52 70.1026 2.448 73.4626 2.448ZM73.4626 5.352C71.8066 5.352 70.6786 7.104 70.6786 10.368C70.6786 13.68 71.8066 15.456 73.4626 15.456C75.1186 15.456 76.2226 13.68 76.2226 10.368C76.2226 7.104 75.1186 5.352 73.4626 5.352ZM91.3959 12.36H107.02V14.856H91.3959V12.36ZM89.0439 18H109.156V20.592H89.0439V18ZM91.3959 2.52H106.828V5.088H94.6359V13.056H91.3959V2.52ZM93.6519 7.416H106.324V9.888H93.6519V7.416ZM111.377 6.4H117.057V8.6H116.277L115.997 7.34H114.917V11.98L115.777 12.2V12.88H112.657V12.2L113.537 11.98V7.34H112.437L112.157 8.6H111.377V6.4ZM121.737 11.66L123.357 6.4H125.877V7.08L125.217 7.28V12L125.877 12.2V12.88H123.257V12.2L123.897 12V7.38L122.357 12.88H120.997L119.517 7.38V12L120.077 12.2V12.88H117.777V12.2L118.537 12V7.28L117.777 7.08V6.4H120.317L121.657 11.66H121.737Z" fill="black"/>
</svg>
