<svg width="20" height="26" viewBox="0 0 20 26" fill="none" xmlns="http://www.w3.org/2000/svg">
<circle cx="10" cy="16" r="9" fill="white" stroke="#42A1E0" stroke-width="2"/>
<path d="M11.2504 10.8182L11.0217 17.8828H8.97834L8.74964 10.8182H11.2504ZM9.99751 21.1442C9.64287 21.1442 9.33795 21.0182 9.08274 20.7663C8.83085 20.5144 8.7049 20.2095 8.7049 19.8516C8.7049 19.5002 8.83085 19.2003 9.08274 18.9517C9.33795 18.6998 9.64287 18.5739 9.99751 18.5739C10.3389 18.5739 10.6388 18.6998 10.8974 18.9517C11.1592 19.2003 11.2901 19.5002 11.2901 19.8516C11.2901 20.0902 11.2288 20.3073 11.1062 20.5028C10.9869 20.6984 10.8294 20.8542 10.6339 20.9702C10.4416 21.0862 10.2295 21.1442 9.99751 21.1442Z" fill="#42A1E0"/>
</svg>
