<svg width="464" height="337" viewBox="0 0 464 337" fill="none" xmlns="http://www.w3.org/2000/svg">
<rect width="384" height="337" rx="37" fill="white"/>
<path d="M68.6591 52.7273H74.1705L79.4773 62.75H79.7045L85.0114 52.7273H90.5227L82.0341 67.7727V76H77.1477V67.7727L68.6591 52.7273ZM97.3086 76.3409C95.5435 76.3409 94.017 75.9659 92.7291 75.2159C91.4488 74.4583 90.4601 73.4053 89.7632 72.0568C89.0662 70.7008 88.7177 69.1288 88.7177 67.3409C88.7177 65.5379 89.0662 63.9621 89.7632 62.6136C90.4601 61.2576 91.4488 60.2045 92.7291 59.4545C94.017 58.697 95.5435 58.3182 97.3086 58.3182C99.0738 58.3182 100.597 58.697 101.877 59.4545C103.165 60.2045 104.157 61.2576 104.854 62.6136C105.551 63.9621 105.9 65.5379 105.9 67.3409C105.9 69.1288 105.551 70.7008 104.854 72.0568C104.157 73.4053 103.165 74.4583 101.877 75.2159C100.597 75.9659 99.0738 76.3409 97.3086 76.3409ZM97.3314 72.5909C98.1344 72.5909 98.8048 72.3636 99.3427 71.9091C99.8806 71.447 100.286 70.8182 100.559 70.0227C100.839 69.2273 100.979 68.322 100.979 67.3068C100.979 66.2917 100.839 65.3864 100.559 64.5909C100.286 63.7955 99.8806 63.1667 99.3427 62.7045C98.8048 62.2424 98.1344 62.0114 97.3314 62.0114C96.5208 62.0114 95.8389 62.2424 95.2859 62.7045C94.7405 63.1667 94.3276 63.7955 94.0473 64.5909C93.7745 65.3864 93.6382 66.2917 93.6382 67.3068C93.6382 68.322 93.7745 69.2273 94.0473 70.0227C94.3276 70.8182 94.7405 71.447 95.2859 71.9091C95.8389 72.3636 96.5208 72.5909 97.3314 72.5909ZM120.2 68.5682V58.5455H125.041V76H120.393V72.8295H120.211C119.817 73.8523 119.162 74.6742 118.245 75.2955C117.336 75.9167 116.226 76.2273 114.916 76.2273C113.749 76.2273 112.722 75.9621 111.836 75.4318C110.95 74.9015 110.256 74.1477 109.756 73.1705C109.264 72.1932 109.014 71.0227 109.006 69.6591V58.5455H113.847V68.7955C113.855 69.8258 114.131 70.6402 114.677 71.2386C115.222 71.8371 115.953 72.1364 116.87 72.1364C117.453 72.1364 117.999 72.0038 118.506 71.7386C119.014 71.4659 119.423 71.0644 119.734 70.5341C120.052 70.0038 120.207 69.3485 120.2 68.5682ZM150.76 63.5227L146.328 63.7955C146.253 63.4167 146.09 63.0758 145.84 62.7727C145.59 62.4621 145.26 62.2159 144.851 62.0341C144.449 61.8447 143.968 61.75 143.408 61.75C142.658 61.75 142.025 61.9091 141.51 62.2273C140.995 62.5379 140.737 62.9545 140.737 63.4773C140.737 63.8939 140.904 64.2462 141.237 64.5341C141.571 64.822 142.143 65.053 142.953 65.2273L146.112 65.8636C147.809 66.2121 149.074 66.7727 149.908 67.5455C150.741 68.3182 151.158 69.3333 151.158 70.5909C151.158 71.7348 150.821 72.7386 150.146 73.6023C149.48 74.4659 148.563 75.1402 147.396 75.625C146.237 76.1023 144.9 76.3409 143.385 76.3409C141.074 76.3409 139.234 75.8598 137.862 74.8977C136.499 73.928 135.699 72.6098 135.465 70.9432L140.226 70.6932C140.37 71.3977 140.718 71.9356 141.271 72.3068C141.824 72.6705 142.533 72.8523 143.396 72.8523C144.245 72.8523 144.927 72.6894 145.442 72.3636C145.965 72.0303 146.23 71.6023 146.237 71.0795C146.23 70.6402 146.044 70.2803 145.681 70C145.317 69.7121 144.756 69.4924 143.999 69.3409L140.976 68.7386C139.271 68.3977 138.003 67.8068 137.169 66.9659C136.343 66.125 135.931 65.053 135.931 63.75C135.931 62.6288 136.234 61.6629 136.84 60.8523C137.453 60.0417 138.313 59.4167 139.419 58.9773C140.533 58.5379 141.836 58.3182 143.328 58.3182C145.533 58.3182 147.268 58.7841 148.533 59.7159C149.806 60.6477 150.548 61.9167 150.76 63.5227ZM159.006 65.9091V76H154.165V52.7273H158.87V61.625H159.074C159.468 60.5947 160.105 59.7879 160.983 59.2045C161.862 58.6136 162.965 58.3182 164.29 58.3182C165.502 58.3182 166.559 58.5833 167.461 59.1136C168.37 59.6364 169.074 60.3902 169.574 61.375C170.082 62.3523 170.332 63.5227 170.324 64.8864V76H165.483V65.75C165.491 64.6742 165.218 63.8371 164.665 63.2386C164.12 62.6402 163.355 62.3409 162.37 62.3409C161.711 62.3409 161.127 62.4811 160.62 62.7614C160.12 63.0417 159.726 63.4508 159.438 63.9886C159.158 64.5189 159.014 65.1591 159.006 65.9091ZM181.98 76.3409C180.214 76.3409 178.688 75.9659 177.4 75.2159C176.12 74.4583 175.131 73.4053 174.434 72.0568C173.737 70.7008 173.389 69.1288 173.389 67.3409C173.389 65.5379 173.737 63.9621 174.434 62.6136C175.131 61.2576 176.12 60.2045 177.4 59.4545C178.688 58.697 180.214 58.3182 181.98 58.3182C183.745 58.3182 185.268 58.697 186.548 59.4545C187.836 60.2045 188.828 61.2576 189.525 62.6136C190.222 63.9621 190.571 65.5379 190.571 67.3409C190.571 69.1288 190.222 70.7008 189.525 72.0568C188.828 73.4053 187.836 74.4583 186.548 75.2159C185.268 75.9659 183.745 76.3409 181.98 76.3409ZM182.002 72.5909C182.805 72.5909 183.476 72.3636 184.014 71.9091C184.552 71.447 184.957 70.8182 185.23 70.0227C185.51 69.2273 185.65 68.322 185.65 67.3068C185.65 66.2917 185.51 65.3864 185.23 64.5909C184.957 63.7955 184.552 63.1667 184.014 62.7045C183.476 62.2424 182.805 62.0114 182.002 62.0114C181.192 62.0114 180.51 62.2424 179.957 62.7045C179.411 63.1667 178.999 63.7955 178.718 64.5909C178.446 65.3864 178.309 66.2917 178.309 67.3068C178.309 68.322 178.446 69.2273 178.718 70.0227C178.999 70.8182 179.411 71.447 179.957 71.9091C180.51 72.3636 181.192 72.5909 182.002 72.5909ZM204.871 68.5682V58.5455H209.712V76H205.064V72.8295H204.882C204.488 73.8523 203.833 74.6742 202.916 75.2955C202.007 75.9167 200.897 76.2273 199.587 76.2273C198.42 76.2273 197.393 75.9621 196.507 75.4318C195.621 74.9015 194.927 74.1477 194.427 73.1705C193.935 72.1932 193.685 71.0227 193.677 69.6591V58.5455H198.518V68.7955C198.526 69.8258 198.802 70.6402 199.348 71.2386C199.893 71.8371 200.624 72.1364 201.541 72.1364C202.124 72.1364 202.67 72.0038 203.177 71.7386C203.685 71.4659 204.094 71.0644 204.405 70.5341C204.723 70.0038 204.878 69.3485 204.871 68.5682ZM218.384 52.7273V76H213.543V52.7273H218.384ZM228.653 76.2841C227.327 76.2841 226.126 75.9432 225.05 75.2614C223.982 74.572 223.134 73.5606 222.505 72.2273C221.884 70.8864 221.573 69.2424 221.573 67.2955C221.573 65.2955 221.895 63.6326 222.539 62.3068C223.183 60.9735 224.039 59.9773 225.107 59.3182C226.183 58.6515 227.361 58.3182 228.641 58.3182C229.619 58.3182 230.433 58.4848 231.085 58.8182C231.744 59.1439 232.274 59.553 232.675 60.0455C233.085 60.5303 233.395 61.0076 233.607 61.4773H233.755V52.7273H238.585V76H233.812V73.2045H233.607C233.38 73.6894 233.058 74.1705 232.641 74.6477C232.232 75.1174 231.698 75.5076 231.039 75.8182C230.388 76.1288 229.592 76.2841 228.653 76.2841ZM230.187 72.4318C230.967 72.4318 231.626 72.2197 232.164 71.7955C232.71 71.3636 233.126 70.7614 233.414 69.9886C233.71 69.2159 233.857 68.3106 233.857 67.2727C233.857 66.2348 233.713 65.3333 233.425 64.5682C233.138 63.803 232.721 63.2121 232.175 62.7955C231.63 62.3788 230.967 62.1705 230.187 62.1705C229.391 62.1705 228.721 62.3864 228.175 62.8182C227.63 63.25 227.217 63.8485 226.937 64.6136C226.656 65.3788 226.516 66.2652 226.516 67.2727C226.516 68.2879 226.656 69.1856 226.937 69.9659C227.225 70.7386 227.638 71.3447 228.175 71.7841C228.721 72.2159 229.391 72.4318 230.187 72.4318ZM257.844 76.3409C256.048 76.3409 254.503 75.9773 253.207 75.25C251.92 74.5152 250.927 73.4773 250.23 72.1364C249.533 70.7879 249.185 69.1932 249.185 67.3523C249.185 65.5568 249.533 63.9811 250.23 62.625C250.927 61.2689 251.908 60.2121 253.173 59.4545C254.446 58.697 255.939 58.3182 257.651 58.3182C258.802 58.3182 259.874 58.5038 260.867 58.875C261.867 59.2386 262.738 59.7879 263.48 60.5227C264.23 61.2576 264.814 62.1818 265.23 63.2955C265.647 64.4015 265.855 65.697 265.855 67.1818V68.5114H251.117V65.5114H261.298C261.298 64.8144 261.147 64.197 260.844 63.6591C260.541 63.1212 260.12 62.7008 259.582 62.3977C259.052 62.0871 258.435 61.9318 257.73 61.9318C256.995 61.9318 256.344 62.1023 255.776 62.4432C255.215 62.7765 254.776 63.2273 254.457 63.7955C254.139 64.3561 253.976 64.9811 253.969 65.6705V68.5227C253.969 69.3864 254.128 70.1326 254.446 70.7614C254.772 71.3902 255.23 71.875 255.821 72.2159C256.412 72.5568 257.113 72.7273 257.923 72.7273C258.461 72.7273 258.954 72.6515 259.401 72.5C259.848 72.3485 260.23 72.1212 260.548 71.8182C260.867 71.5152 261.109 71.1439 261.276 70.7045L265.753 71C265.526 72.0758 265.06 73.0152 264.355 73.8182C263.658 74.6136 262.757 75.2348 261.651 75.6818C260.552 76.1212 259.283 76.3409 257.844 76.3409ZM273.951 76.3295C272.837 76.3295 271.845 76.1364 270.973 75.75C270.102 75.3561 269.413 74.7765 268.905 74.0114C268.405 73.2386 268.155 72.2765 268.155 71.125C268.155 70.1553 268.333 69.3409 268.689 68.6818C269.045 68.0227 269.53 67.4924 270.144 67.0909C270.758 66.6894 271.455 66.3864 272.235 66.1818C273.023 65.9773 273.848 65.8333 274.712 65.75C275.727 65.6439 276.545 65.5455 277.167 65.4545C277.788 65.3561 278.239 65.2121 278.519 65.0227C278.799 64.8333 278.939 64.553 278.939 64.1818V64.1136C278.939 63.3939 278.712 62.8371 278.258 62.4432C277.811 62.0492 277.174 61.8523 276.348 61.8523C275.477 61.8523 274.784 62.0455 274.269 62.4318C273.754 62.8106 273.413 63.2879 273.246 63.8636L268.769 63.5C268.996 62.4394 269.443 61.5227 270.11 60.75C270.777 59.9697 271.636 59.3712 272.689 58.9545C273.75 58.5303 274.977 58.3182 276.371 58.3182C277.341 58.3182 278.269 58.4318 279.155 58.6591C280.049 58.8864 280.841 59.2386 281.53 59.7159C282.227 60.1932 282.777 60.8068 283.178 61.5568C283.58 62.2992 283.78 63.1894 283.78 64.2273V76H279.189V73.5795H279.053C278.773 74.125 278.398 74.6061 277.928 75.0227C277.458 75.4318 276.894 75.7538 276.235 75.9886C275.576 76.2159 274.814 76.3295 273.951 76.3295ZM275.337 72.9886C276.049 72.9886 276.678 72.8485 277.223 72.5682C277.769 72.2803 278.197 71.8939 278.508 71.4091C278.818 70.9242 278.973 70.375 278.973 69.7614V67.9091C278.822 68.0076 278.614 68.0985 278.348 68.1818C278.091 68.2576 277.799 68.3295 277.473 68.3977C277.148 68.4583 276.822 68.5152 276.496 68.5682C276.17 68.6136 275.875 68.6553 275.61 68.6932C275.042 68.7765 274.545 68.9091 274.121 69.0909C273.697 69.2727 273.367 69.5189 273.133 69.8295C272.898 70.1326 272.78 70.5114 272.78 70.9659C272.78 71.625 273.019 72.1288 273.496 72.4773C273.981 72.8182 274.595 72.9886 275.337 72.9886ZM296.779 58.5455V62.1818H286.268V58.5455H296.779ZM288.654 54.3636H293.495V70.6364C293.495 71.0833 293.563 71.4318 293.7 71.6818C293.836 71.9242 294.025 72.0947 294.268 72.1932C294.518 72.2917 294.806 72.3409 295.132 72.3409C295.359 72.3409 295.586 72.322 295.813 72.2841C296.041 72.2386 296.215 72.2045 296.336 72.1818L297.097 75.7841C296.855 75.8598 296.514 75.947 296.075 76.0455C295.635 76.1515 295.101 76.2159 294.472 76.2386C293.306 76.2841 292.283 76.1288 291.404 75.7727C290.533 75.4167 289.855 74.8636 289.37 74.1136C288.885 73.3636 288.647 72.4167 288.654 71.2727V54.3636ZM84.4545 97.5227L80.0227 97.7955C79.947 97.4167 79.7841 97.0758 79.5341 96.7727C79.2841 96.4621 78.9545 96.2159 78.5455 96.0341C78.1439 95.8447 77.6629 95.75 77.1023 95.75C76.3523 95.75 75.7197 95.9091 75.2045 96.2273C74.6894 96.5379 74.4318 96.9545 74.4318 97.4773C74.4318 97.8939 74.5985 98.2462 74.9318 98.5341C75.2652 98.822 75.8371 99.053 76.6477 99.2273L79.8068 99.8636C81.5038 100.212 82.7689 100.773 83.6023 101.545C84.4356 102.318 84.8523 103.333 84.8523 104.591C84.8523 105.735 84.5152 106.739 83.8409 107.602C83.1742 108.466 82.2576 109.14 81.0909 109.625C79.9318 110.102 78.5947 110.341 77.0795 110.341C74.7689 110.341 72.928 109.86 71.5568 108.898C70.1932 107.928 69.3939 106.61 69.1591 104.943L73.9205 104.693C74.0644 105.398 74.4129 105.936 74.9659 106.307C75.5189 106.67 76.2273 106.852 77.0909 106.852C77.9394 106.852 78.6212 106.689 79.1364 106.364C79.6591 106.03 79.9242 105.602 79.9318 105.08C79.9242 104.64 79.7386 104.28 79.375 104C79.0114 103.712 78.4508 103.492 77.6932 103.341L74.6705 102.739C72.9659 102.398 71.697 101.807 70.8636 100.966C70.0379 100.125 69.625 99.053 69.625 97.75C69.625 96.6288 69.928 95.6629 70.5341 94.8523C71.1477 94.0417 72.0076 93.4167 73.1136 92.9773C74.2273 92.5379 75.5303 92.3182 77.0227 92.3182C79.2273 92.3182 80.9621 92.7841 82.2273 93.7159C83.5 94.6477 84.2424 95.9167 84.4545 97.5227ZM95.7461 110.341C93.981 110.341 92.4545 109.966 91.1666 109.216C89.8863 108.458 88.8976 107.405 88.2007 106.057C87.5037 104.701 87.1552 103.129 87.1552 101.341C87.1552 99.5379 87.5037 97.9621 88.2007 96.6136C88.8976 95.2576 89.8863 94.2045 91.1666 93.4545C92.4545 92.697 93.981 92.3182 95.7461 92.3182C97.5113 92.3182 99.034 92.697 100.314 93.4545C101.602 94.2045 102.595 95.2576 103.292 96.6136C103.989 97.9621 104.337 99.5379 104.337 101.341C104.337 103.129 103.989 104.701 103.292 106.057C102.595 107.405 101.602 108.458 100.314 109.216C99.034 109.966 97.5113 110.341 95.7461 110.341ZM95.7689 106.591C96.5719 106.591 97.2423 106.364 97.7802 105.909C98.3181 105.447 98.7234 104.818 98.9961 104.023C99.2764 103.227 99.4166 102.322 99.4166 101.307C99.4166 100.292 99.2764 99.3864 98.9961 98.5909C98.7234 97.7955 98.3181 97.1667 97.7802 96.7045C97.2423 96.2424 96.5719 96.0114 95.7689 96.0114C94.9583 96.0114 94.2764 96.2424 93.7234 96.7045C93.178 97.1667 92.7651 97.7955 92.4848 98.5909C92.212 99.3864 92.0757 100.292 92.0757 101.307C92.0757 102.322 92.212 103.227 92.4848 104.023C92.7651 104.818 93.178 105.447 93.7234 105.909C94.2764 106.364 94.9583 106.591 95.7689 106.591ZM107.444 110V92.5455H112.058V95.625H112.262C112.626 94.6023 113.232 93.7955 114.08 93.2045C114.929 92.6136 115.944 92.3182 117.126 92.3182C118.323 92.3182 119.342 92.6174 120.183 93.2159C121.024 93.8068 121.584 94.6098 121.864 95.625H122.046C122.402 94.625 123.046 93.8258 123.978 93.2273C124.917 92.6212 126.027 92.3182 127.308 92.3182C128.936 92.3182 130.258 92.8371 131.274 93.875C132.296 94.9053 132.808 96.3674 132.808 98.2614V110H127.978V99.2159C127.978 98.2462 127.72 97.5189 127.205 97.0341C126.69 96.5492 126.046 96.3068 125.274 96.3068C124.395 96.3068 123.709 96.5871 123.217 97.1477C122.724 97.7008 122.478 98.4318 122.478 99.3409V110H117.785V99.1136C117.785 98.2576 117.539 97.5758 117.046 97.0682C116.561 96.5606 115.921 96.3068 115.126 96.3068C114.588 96.3068 114.103 96.4432 113.671 96.7159C113.247 96.9811 112.91 97.3561 112.66 97.8409C112.41 98.3182 112.285 98.8788 112.285 99.5227V110H107.444ZM144.545 110.341C142.75 110.341 141.204 109.977 139.909 109.25C138.621 108.515 137.629 107.477 136.932 106.136C136.235 104.788 135.886 103.193 135.886 101.352C135.886 99.5568 136.235 97.9811 136.932 96.625C137.629 95.2689 138.61 94.2121 139.875 93.4545C141.147 92.697 142.64 92.3182 144.352 92.3182C145.504 92.3182 146.576 92.5038 147.568 92.875C148.568 93.2386 149.439 93.7879 150.182 94.5227C150.932 95.2576 151.515 96.1818 151.932 97.2955C152.348 98.4015 152.557 99.697 152.557 101.182V102.511H137.818V99.5114H148C148 98.8144 147.848 98.197 147.545 97.6591C147.242 97.1212 146.822 96.7008 146.284 96.3977C145.754 96.0871 145.136 95.9318 144.432 95.9318C143.697 95.9318 143.045 96.1023 142.477 96.4432C141.916 96.7765 141.477 97.2273 141.159 97.7955C140.841 98.3561 140.678 98.9811 140.67 99.6705V102.523C140.67 103.386 140.829 104.133 141.147 104.761C141.473 105.39 141.932 105.875 142.522 106.216C143.113 106.557 143.814 106.727 144.625 106.727C145.163 106.727 145.655 106.652 146.102 106.5C146.549 106.348 146.932 106.121 147.25 105.818C147.568 105.515 147.81 105.144 147.977 104.705L152.454 105C152.227 106.076 151.761 107.015 151.057 107.818C150.36 108.614 149.458 109.235 148.352 109.682C147.254 110.121 145.985 110.341 144.545 110.341ZM164.959 92.5455V96.1818H154.448V92.5455H164.959ZM156.834 88.3636H161.675V104.636C161.675 105.083 161.743 105.432 161.879 105.682C162.016 105.924 162.205 106.095 162.448 106.193C162.698 106.292 162.985 106.341 163.311 106.341C163.539 106.341 163.766 106.322 163.993 106.284C164.22 106.239 164.395 106.205 164.516 106.182L165.277 109.784C165.035 109.86 164.694 109.947 164.254 110.045C163.815 110.152 163.281 110.216 162.652 110.239C161.485 110.284 160.463 110.129 159.584 109.773C158.713 109.417 158.035 108.864 157.55 108.114C157.065 107.364 156.826 106.417 156.834 105.273V88.3636ZM173.287 99.9091V110H168.447V86.7273H173.151V95.625H173.356C173.75 94.5947 174.386 93.7879 175.265 93.2045C176.144 92.6136 177.246 92.3182 178.572 92.3182C179.784 92.3182 180.841 92.5833 181.742 93.1136C182.651 93.6364 183.356 94.3902 183.856 95.375C184.363 96.3523 184.613 97.5227 184.606 98.8864V110H179.765V99.75C179.772 98.6742 179.5 97.8371 178.947 97.2386C178.401 96.6402 177.636 96.3409 176.651 96.3409C175.992 96.3409 175.409 96.4811 174.901 96.7614C174.401 97.0417 174.007 97.4508 173.719 97.9886C173.439 98.5189 173.295 99.1591 173.287 99.9091ZM188.375 110V92.5455H193.215V110H188.375ZM190.806 90.2955C190.087 90.2955 189.469 90.0568 188.954 89.5795C188.446 89.0947 188.193 88.5152 188.193 87.8409C188.193 87.1742 188.446 86.6023 188.954 86.125C189.469 85.6402 190.087 85.3977 190.806 85.3977C191.526 85.3977 192.14 85.6402 192.647 86.125C193.162 86.6023 193.42 87.1742 193.42 87.8409C193.42 88.5152 193.162 89.0947 192.647 89.5795C192.14 90.0568 191.526 90.2955 190.806 90.2955ZM201.893 99.9091V110H197.052V92.5455H201.666V95.625H201.871C202.257 94.6098 202.905 93.8068 203.814 93.2159C204.723 92.6174 205.825 92.3182 207.121 92.3182C208.333 92.3182 209.39 92.5833 210.291 93.1136C211.193 93.6439 211.893 94.4015 212.393 95.3864C212.893 96.3636 213.143 97.5303 213.143 98.8864V110H208.302V99.75C208.31 98.6818 208.037 97.8485 207.484 97.25C206.931 96.6439 206.17 96.3409 205.2 96.3409C204.549 96.3409 203.973 96.4811 203.473 96.7614C202.98 97.0417 202.594 97.4508 202.314 97.9886C202.041 98.5189 201.901 99.1591 201.893 99.9091ZM224.782 116.909C223.213 116.909 221.869 116.693 220.747 116.261C219.634 115.837 218.747 115.258 218.088 114.523C217.429 113.788 217.001 112.962 216.804 112.045L221.282 111.443C221.418 111.792 221.634 112.117 221.929 112.42C222.225 112.723 222.615 112.966 223.1 113.148C223.592 113.337 224.191 113.432 224.895 113.432C225.948 113.432 226.816 113.174 227.497 112.659C228.187 112.152 228.532 111.299 228.532 110.102V106.909H228.327C228.115 107.394 227.797 107.852 227.372 108.284C226.948 108.716 226.403 109.068 225.736 109.341C225.069 109.614 224.274 109.75 223.35 109.75C222.039 109.75 220.846 109.447 219.77 108.841C218.702 108.227 217.85 107.292 217.213 106.034C216.585 104.769 216.27 103.17 216.27 101.239C216.27 99.2614 216.592 97.6098 217.236 96.2841C217.88 94.9583 218.736 93.9659 219.804 93.3068C220.88 92.6477 222.058 92.3182 223.338 92.3182C224.316 92.3182 225.134 92.4848 225.793 92.8182C226.452 93.1439 226.982 93.553 227.384 94.0455C227.793 94.5303 228.107 95.0076 228.327 95.4773H228.509V92.5455H233.316V110.17C233.316 111.655 232.952 112.898 232.225 113.898C231.497 114.898 230.49 115.648 229.202 116.148C227.922 116.655 226.448 116.909 224.782 116.909ZM224.884 106.114C225.664 106.114 226.323 105.92 226.861 105.534C227.407 105.14 227.823 104.58 228.111 103.852C228.407 103.117 228.554 102.239 228.554 101.216C228.554 100.193 228.41 99.3068 228.122 98.5568C227.835 97.7992 227.418 97.2121 226.872 96.7955C226.327 96.3788 225.664 96.1705 224.884 96.1705C224.088 96.1705 223.418 96.3864 222.872 96.8182C222.327 97.2424 221.914 97.8333 221.634 98.5909C221.354 99.3485 221.213 100.223 221.213 101.216C221.213 102.223 221.354 103.095 221.634 103.83C221.922 104.557 222.335 105.121 222.872 105.523C223.418 105.917 224.088 106.114 224.884 106.114ZM239.957 110.295C239.207 110.295 238.563 110.03 238.025 109.5C237.495 108.962 237.229 108.318 237.229 107.568C237.229 106.826 237.495 106.189 238.025 105.659C238.563 105.129 239.207 104.864 239.957 104.864C240.684 104.864 241.32 105.129 241.866 105.659C242.411 106.189 242.684 106.826 242.684 107.568C242.684 108.068 242.555 108.527 242.298 108.943C242.048 109.352 241.718 109.682 241.309 109.932C240.9 110.174 240.449 110.295 239.957 110.295Z" fill="black"/>
<path d="M91.4091 215.364C91.4091 217.902 90.928 220.061 89.9659 221.841C89.0114 223.621 87.7083 224.981 86.0568 225.92C84.4129 226.852 82.5644 227.318 80.5114 227.318C78.4432 227.318 76.5871 226.848 74.9432 225.909C73.2992 224.97 72 223.61 71.0455 221.83C70.0909 220.049 69.6136 217.894 69.6136 215.364C69.6136 212.826 70.0909 210.667 71.0455 208.886C72 207.106 73.2992 205.75 74.9432 204.818C76.5871 203.879 78.4432 203.409 80.5114 203.409C82.5644 203.409 84.4129 203.879 86.0568 204.818C87.7083 205.75 89.0114 207.106 89.9659 208.886C90.928 210.667 91.4091 212.826 91.4091 215.364ZM86.4205 215.364C86.4205 213.72 86.1742 212.333 85.6818 211.205C85.197 210.076 84.5114 209.22 83.625 208.636C82.7386 208.053 81.7008 207.761 80.5114 207.761C79.322 207.761 78.2841 208.053 77.3977 208.636C76.5114 209.22 75.822 210.076 75.3295 211.205C74.8447 212.333 74.6023 213.72 74.6023 215.364C74.6023 217.008 74.8447 218.394 75.3295 219.523C75.822 220.652 76.5114 221.508 77.3977 222.091C78.2841 222.674 79.322 222.966 80.5114 222.966C81.7008 222.966 82.7386 222.674 83.625 222.091C84.5114 221.508 85.197 220.652 85.6818 219.523C86.1742 218.394 86.4205 217.008 86.4205 215.364ZM99.7632 216.909V227H94.9223V203.727H99.6268V212.625H99.8314C100.225 211.595 100.862 210.788 101.74 210.205C102.619 209.614 103.722 209.318 105.047 209.318C106.259 209.318 107.316 209.583 108.218 210.114C109.127 210.636 109.831 211.39 110.331 212.375C110.839 213.352 111.089 214.523 111.081 215.886V227H106.24V216.75C106.248 215.674 105.975 214.837 105.422 214.239C104.877 213.64 104.112 213.341 103.127 213.341C102.468 213.341 101.884 213.481 101.377 213.761C100.877 214.042 100.483 214.451 100.195 214.989C99.9147 215.519 99.7708 216.159 99.7632 216.909ZM120.112 223.818L119.987 225.068C119.888 226.068 119.699 227.064 119.418 228.057C119.146 229.057 118.858 229.962 118.555 230.773C118.259 231.583 118.021 232.22 117.839 232.682H114.702C114.816 232.235 114.971 231.61 115.168 230.807C115.365 230.011 115.551 229.117 115.725 228.125C115.899 227.133 116.009 226.121 116.055 225.091L116.112 223.818H120.112ZM129.496 203.727H135.007L140.314 213.75H140.541L145.848 203.727H151.36L142.871 218.773V227H137.985V218.773L129.496 203.727ZM158.145 227.341C156.38 227.341 154.854 226.966 153.566 226.216C152.286 225.458 151.297 224.405 150.6 223.057C149.903 221.701 149.555 220.129 149.555 218.341C149.555 216.538 149.903 214.962 150.6 213.614C151.297 212.258 152.286 211.205 153.566 210.455C154.854 209.697 156.38 209.318 158.145 209.318C159.911 209.318 161.433 209.697 162.714 210.455C164.001 211.205 164.994 212.258 165.691 213.614C166.388 214.962 166.736 216.538 166.736 218.341C166.736 220.129 166.388 221.701 165.691 223.057C164.994 224.405 164.001 225.458 162.714 226.216C161.433 226.966 159.911 227.341 158.145 227.341ZM158.168 223.591C158.971 223.591 159.642 223.364 160.18 222.909C160.717 222.447 161.123 221.818 161.395 221.023C161.676 220.227 161.816 219.322 161.816 218.307C161.816 217.292 161.676 216.386 161.395 215.591C161.123 214.795 160.717 214.167 160.18 213.705C159.642 213.242 158.971 213.011 158.168 213.011C157.358 213.011 156.676 213.242 156.123 213.705C155.577 214.167 155.164 214.795 154.884 215.591C154.611 216.386 154.475 217.292 154.475 218.307C154.475 219.322 154.611 220.227 154.884 221.023C155.164 221.818 155.577 222.447 156.123 222.909C156.676 223.364 157.358 223.591 158.168 223.591ZM181.036 219.568V209.545H185.877V227H181.23V223.83H181.048C180.654 224.852 179.999 225.674 179.082 226.295C178.173 226.917 177.063 227.227 175.752 227.227C174.586 227.227 173.559 226.962 172.673 226.432C171.786 225.902 171.093 225.148 170.593 224.17C170.101 223.193 169.851 222.023 169.843 220.659V209.545H174.684V219.795C174.692 220.826 174.968 221.64 175.514 222.239C176.059 222.837 176.79 223.136 177.707 223.136C178.29 223.136 178.836 223.004 179.343 222.739C179.851 222.466 180.26 222.064 180.571 221.534C180.889 221.004 181.044 220.348 181.036 219.568ZM197.074 227V209.545H201.688V212.625H201.892C202.256 211.602 202.862 210.795 203.711 210.205C204.559 209.614 205.574 209.318 206.756 209.318C207.953 209.318 208.972 209.617 209.813 210.216C210.654 210.807 211.214 211.61 211.495 212.625H211.676C212.033 211.625 212.676 210.826 213.608 210.227C214.548 209.621 215.658 209.318 216.938 209.318C218.567 209.318 219.889 209.837 220.904 210.875C221.926 211.905 222.438 213.367 222.438 215.261V227H217.608V216.216C217.608 215.246 217.351 214.519 216.836 214.034C216.32 213.549 215.676 213.307 214.904 213.307C214.025 213.307 213.339 213.587 212.847 214.148C212.354 214.701 212.108 215.432 212.108 216.341V227H207.415V216.114C207.415 215.258 207.169 214.576 206.676 214.068C206.192 213.561 205.551 213.307 204.756 213.307C204.218 213.307 203.733 213.443 203.301 213.716C202.877 213.981 202.54 214.356 202.29 214.841C202.04 215.318 201.915 215.879 201.915 216.523V227H197.074ZM237.414 219.568V209.545H242.255V227H237.607V223.83H237.425C237.031 224.852 236.376 225.674 235.46 226.295C234.55 226.917 233.441 227.227 232.13 227.227C230.963 227.227 229.937 226.962 229.05 226.432C228.164 225.902 227.471 225.148 226.971 224.17C226.478 223.193 226.228 222.023 226.221 220.659V209.545H231.062V219.795C231.069 220.826 231.346 221.64 231.891 222.239C232.437 222.837 233.168 223.136 234.085 223.136C234.668 223.136 235.213 223.004 235.721 222.739C236.228 222.466 236.638 222.064 236.948 221.534C237.266 221.004 237.422 220.348 237.414 219.568ZM260.609 214.523L256.177 214.795C256.101 214.417 255.939 214.076 255.689 213.773C255.439 213.462 255.109 213.216 254.7 213.034C254.298 212.845 253.817 212.75 253.257 212.75C252.507 212.75 251.874 212.909 251.359 213.227C250.844 213.538 250.586 213.955 250.586 214.477C250.586 214.894 250.753 215.246 251.086 215.534C251.42 215.822 251.992 216.053 252.802 216.227L255.961 216.864C257.658 217.212 258.923 217.773 259.757 218.545C260.59 219.318 261.007 220.333 261.007 221.591C261.007 222.735 260.67 223.739 259.995 224.602C259.329 225.466 258.412 226.14 257.245 226.625C256.086 227.102 254.749 227.341 253.234 227.341C250.923 227.341 249.083 226.86 247.711 225.898C246.348 224.928 245.548 223.61 245.314 221.943L250.075 221.693C250.219 222.398 250.567 222.936 251.12 223.307C251.673 223.67 252.382 223.852 253.245 223.852C254.094 223.852 254.776 223.689 255.291 223.364C255.814 223.03 256.079 222.602 256.086 222.08C256.079 221.64 255.893 221.28 255.529 221C255.166 220.712 254.605 220.492 253.848 220.341L250.825 219.739C249.12 219.398 247.851 218.807 247.018 217.966C246.192 217.125 245.779 216.053 245.779 214.75C245.779 213.629 246.083 212.663 246.689 211.852C247.302 211.042 248.162 210.417 249.268 209.977C250.382 209.538 251.685 209.318 253.177 209.318C255.382 209.318 257.117 209.784 258.382 210.716C259.654 211.648 260.397 212.917 260.609 214.523ZM273.298 209.545V213.182H262.787V209.545H273.298ZM265.173 205.364H270.014V221.636C270.014 222.083 270.082 222.432 270.219 222.682C270.355 222.924 270.545 223.095 270.787 223.193C271.037 223.292 271.325 223.341 271.651 223.341C271.878 223.341 272.105 223.322 272.332 223.284C272.56 223.239 272.734 223.205 272.855 223.182L273.617 226.784C273.374 226.86 273.033 226.947 272.594 227.045C272.154 227.152 271.62 227.216 270.992 227.239C269.825 227.284 268.802 227.129 267.923 226.773C267.052 226.417 266.374 225.864 265.889 225.114C265.404 224.364 265.166 223.417 265.173 222.273V205.364ZM283.867 227V203.727H288.708V212.477H288.856C289.068 212.008 289.375 211.53 289.776 211.045C290.186 210.553 290.716 210.144 291.367 209.818C292.026 209.485 292.845 209.318 293.822 209.318C295.095 209.318 296.269 209.652 297.345 210.318C298.42 210.977 299.28 211.973 299.924 213.307C300.568 214.633 300.89 216.295 300.89 218.295C300.89 220.242 300.576 221.886 299.947 223.227C299.326 224.561 298.477 225.572 297.401 226.261C296.333 226.943 295.136 227.284 293.811 227.284C292.871 227.284 292.072 227.129 291.413 226.818C290.761 226.508 290.227 226.117 289.811 225.648C289.394 225.17 289.076 224.689 288.856 224.205H288.64V227H283.867ZM288.606 218.273C288.606 219.311 288.75 220.216 289.038 220.989C289.326 221.761 289.742 222.364 290.288 222.795C290.833 223.22 291.496 223.432 292.276 223.432C293.064 223.432 293.731 223.216 294.276 222.784C294.822 222.345 295.235 221.739 295.515 220.966C295.803 220.186 295.947 219.288 295.947 218.273C295.947 217.265 295.807 216.379 295.526 215.614C295.246 214.848 294.833 214.25 294.288 213.818C293.742 213.386 293.072 213.17 292.276 213.17C291.489 213.17 290.822 213.379 290.276 213.795C289.739 214.212 289.326 214.803 289.038 215.568C288.75 216.333 288.606 217.235 288.606 218.273ZM312.034 227.341C310.238 227.341 308.693 226.977 307.398 226.25C306.11 225.515 305.117 224.477 304.42 223.136C303.723 221.788 303.375 220.193 303.375 218.352C303.375 216.557 303.723 214.981 304.42 213.625C305.117 212.269 306.098 211.212 307.363 210.455C308.636 209.697 310.129 209.318 311.841 209.318C312.992 209.318 314.064 209.504 315.057 209.875C316.057 210.239 316.928 210.788 317.67 211.523C318.42 212.258 319.004 213.182 319.42 214.295C319.837 215.402 320.045 216.697 320.045 218.182V219.511H305.307V216.511H315.488C315.488 215.814 315.337 215.197 315.034 214.659C314.731 214.121 314.31 213.701 313.773 213.398C313.242 213.087 312.625 212.932 311.92 212.932C311.185 212.932 310.534 213.102 309.966 213.443C309.405 213.777 308.966 214.227 308.648 214.795C308.329 215.356 308.166 215.981 308.159 216.67V219.523C308.159 220.386 308.318 221.133 308.636 221.761C308.962 222.39 309.42 222.875 310.011 223.216C310.602 223.557 311.303 223.727 312.113 223.727C312.651 223.727 313.144 223.652 313.591 223.5C314.038 223.348 314.42 223.121 314.738 222.818C315.057 222.515 315.299 222.144 315.466 221.705L319.943 222C319.716 223.076 319.25 224.015 318.545 224.818C317.848 225.614 316.947 226.235 315.841 226.682C314.742 227.121 313.473 227.341 312.034 227.341ZM74.7727 246.909V257H69.9318V233.727H74.6364V242.625H74.8409C75.2348 241.595 75.8712 240.788 76.75 240.205C77.6288 239.614 78.7311 239.318 80.0568 239.318C81.2689 239.318 82.3258 239.583 83.2273 240.114C84.1364 240.636 84.8409 241.39 85.3409 242.375C85.8485 243.352 86.0985 244.523 86.0909 245.886V257H81.25V246.75C81.2576 245.674 80.9848 244.837 80.4318 244.239C79.8864 243.64 79.1212 243.341 78.1364 243.341C77.4773 243.341 76.8939 243.481 76.3864 243.761C75.8864 244.042 75.4924 244.451 75.2045 244.989C74.9242 245.519 74.7803 246.159 74.7727 246.909ZM101.053 249.568V239.545H105.894V257H101.246V253.83H101.064C100.67 254.852 100.015 255.674 99.0984 256.295C98.1893 256.917 97.0795 257.227 95.7689 257.227C94.6022 257.227 93.5757 256.962 92.6893 256.432C91.803 255.902 91.1098 255.148 90.6098 254.17C90.1173 253.193 89.8673 252.023 89.8598 250.659V239.545H94.7007V249.795C94.7083 250.826 94.9848 251.64 95.5302 252.239C96.0757 252.837 96.8067 253.136 97.7234 253.136C98.3067 253.136 98.8522 253.004 99.3598 252.739C99.8673 252.466 100.276 252.064 100.587 251.534C100.905 251.004 101.061 250.348 101.053 249.568ZM114.566 246.909V257H109.725V239.545H114.339V242.625H114.543C114.93 241.61 115.577 240.807 116.487 240.216C117.396 239.617 118.498 239.318 119.793 239.318C121.006 239.318 122.062 239.583 122.964 240.114C123.865 240.644 124.566 241.402 125.066 242.386C125.566 243.364 125.816 244.53 125.816 245.886V257H120.975V246.75C120.983 245.682 120.71 244.848 120.157 244.25C119.604 243.644 118.843 243.341 117.873 243.341C117.221 243.341 116.646 243.481 116.146 243.761C115.653 244.042 115.267 244.451 114.987 244.989C114.714 245.519 114.574 246.159 114.566 246.909ZM137.454 263.909C135.886 263.909 134.541 263.693 133.42 263.261C132.307 262.837 131.42 262.258 130.761 261.523C130.102 260.788 129.674 259.962 129.477 259.045L133.954 258.443C134.091 258.792 134.307 259.117 134.602 259.42C134.897 259.723 135.288 259.966 135.772 260.148C136.265 260.337 136.863 260.432 137.568 260.432C138.621 260.432 139.488 260.174 140.17 259.659C140.86 259.152 141.204 258.299 141.204 257.102V253.909H141C140.788 254.394 140.469 254.852 140.045 255.284C139.621 255.716 139.076 256.068 138.409 256.341C137.742 256.614 136.947 256.75 136.022 256.75C134.712 256.75 133.519 256.447 132.443 255.841C131.375 255.227 130.522 254.292 129.886 253.034C129.257 251.769 128.943 250.17 128.943 248.239C128.943 246.261 129.265 244.61 129.909 243.284C130.553 241.958 131.409 240.966 132.477 240.307C133.553 239.648 134.731 239.318 136.011 239.318C136.988 239.318 137.807 239.485 138.466 239.818C139.125 240.144 139.655 240.553 140.057 241.045C140.466 241.53 140.78 242.008 141 242.477H141.182V239.545H145.988V257.17C145.988 258.655 145.625 259.898 144.897 260.898C144.17 261.898 143.163 262.648 141.875 263.148C140.594 263.655 139.121 263.909 137.454 263.909ZM137.557 253.114C138.337 253.114 138.996 252.92 139.534 252.534C140.079 252.14 140.496 251.58 140.784 250.852C141.079 250.117 141.227 249.239 141.227 248.216C141.227 247.193 141.083 246.307 140.795 245.557C140.507 244.799 140.091 244.212 139.545 243.795C139 243.379 138.337 243.17 137.557 243.17C136.761 243.17 136.091 243.386 135.545 243.818C135 244.242 134.587 244.833 134.307 245.591C134.026 246.348 133.886 247.223 133.886 248.216C133.886 249.223 134.026 250.095 134.307 250.83C134.594 251.557 135.007 252.121 135.545 252.523C136.091 252.917 136.761 253.114 137.557 253.114ZM149.8 257V239.545H154.493V242.591H154.675C154.993 241.508 155.527 240.689 156.277 240.136C157.027 239.576 157.891 239.295 158.868 239.295C159.11 239.295 159.372 239.311 159.652 239.341C159.932 239.371 160.179 239.413 160.391 239.466V243.761C160.164 243.693 159.849 243.633 159.448 243.58C159.046 243.527 158.679 243.5 158.345 243.5C157.633 243.5 156.997 243.655 156.436 243.966C155.883 244.269 155.444 244.693 155.118 245.239C154.8 245.784 154.641 246.413 154.641 247.125V257H149.8ZM166.373 263.545C165.759 263.545 165.183 263.496 164.645 263.398C164.115 263.307 163.676 263.189 163.327 263.045L164.418 259.432C164.986 259.606 165.498 259.701 165.952 259.716C166.414 259.731 166.812 259.625 167.145 259.398C167.486 259.17 167.763 258.784 167.975 258.239L168.259 257.5L161.998 239.545H167.089L170.702 252.364H170.884L174.532 239.545H179.657L172.873 258.886C172.547 259.826 172.104 260.644 171.543 261.341C170.99 262.045 170.289 262.587 169.441 262.966C168.592 263.352 167.57 263.545 166.373 263.545ZM183.829 257.295C183.079 257.295 182.435 257.03 181.897 256.5C181.367 255.962 181.102 255.318 181.102 254.568C181.102 253.826 181.367 253.189 181.897 252.659C182.435 252.129 183.079 251.864 183.829 251.864C184.556 251.864 185.193 252.129 185.738 252.659C186.284 253.189 186.556 253.826 186.556 254.568C186.556 255.068 186.428 255.527 186.17 255.943C185.92 256.352 185.59 256.682 185.181 256.932C184.772 257.174 184.321 257.295 183.829 257.295Z" fill="#42A1E0"/>
<path d="M42 78V195" stroke="#42A1E0" stroke-width="4"/>
<circle cx="42" cy="61" r="10" fill="black"/>
<circle cx="42" cy="213" r="10" fill="#42A1E0"/>
</svg>
