<svg width="131" height="52" viewBox="0 0 131 52" fill="none" xmlns="http://www.w3.org/2000/svg">
<rect x="24" y="11" width="82" height="41" rx="20.5" fill="#3AB6DD"/>
<path d="M55.1333 23.4545V38H52.4771L46.1489 28.8452H46.0424V38H42.9671V23.4545H45.666L51.9444 32.6023H52.0722V23.4545H55.1333ZM57.6333 38V23.4545H67.4345V25.9901H60.7086V29.456H66.9302V31.9915H60.7086V35.4645H67.4629V38H57.6333ZM73.1128 38L68.9509 23.4545H72.3102L74.7179 33.5611H74.8386L77.4949 23.4545H80.3713L83.0205 33.5824H83.1483L85.556 23.4545H88.9153L84.7534 38H81.7563L78.9864 28.4901H78.8727L76.1099 38H73.1128Z" fill="white"/>
</svg>
